<!-- Generated by IcoMoon.io -->
<svg version="1.1" xmlns="http://www.w3.org/2000/svg" width="120" height="32" viewBox="0 0 120 32">
<title>glaive</title>
<path fill="#b286ff" d="M 31.5 18.2 h 0.1 v 0 h -0.1 v 0 z M 26.1 18.5 h 0.2 v 0.1 h -0.2 v -0.1 z M 78.4 14.2 h 37.9 c -0.2 0.3 -7.9 8.7 -13.9 9.1 c -0.3 0 -0.6 0 -1 0.1 c -0.4 0.1 -0.7 0 -1.1 0 c -0.4 0 -0.7 0 -1 0 h -26.8 c -0.1 0.1 -0.2 0.2 -0.3 0.3 c -0.1 0.1 -0.2 0.1 -0.2 0.2 h -1 c -0.1 0.1 -0.3 0.2 -0.5 0.3 c -0.1 -0.4 -0.3 -0.5 -0.5 -0.6 c -0.7 -0.4 -1.4 -0.5 -2.2 -0.5 c -0.5 0 -1 0.3 -1.4 0.8 c -0.1 0.1 -0.2 0.3 -0.2 0.4 c -0.4 0.1 -0.7 -0.2 -1 -0.3 c -1.5 0.6 -3.6 0.4 -3.7 -2.3 c -1.6 0 -1.7 0 -3 0 c 0 -0.4 0 -2.1 0 -2.5 c 0 -0.6 -0.1 -0.7 -0.5 -0.8 c -0.4 0 -0.8 0 -1.2 0 c -0.4 0 -0.7 0 -1.1 0 c -0.3 0 -0.6 0 -1 0 s -0.6 0 -0.9 0 c -0.5 0 -1 0 -1.5 0 c -0.3 0 -0.6 -0.1 -0.9 0 s -0.6 0 -0.9 0 c -0.3 0 -0.5 -0.1 -0.8 0 c -0.3 0 -0.6 0 -0.9 0 c -0.4 0 -0.9 0 -1.4 0 c -0.3 0 -0.7 0 -1 0 s -0.7 0 -1 0 c -0.3 0 -0.5 -0.1 -0.8 0 s -0.5 0 -0.8 0 c -0.3 0 -0.7 0 -1 0 s -0.6 0 -0.9 0 c -0.5 0 -1.1 0.1 -1.5 0 c -0.2 0.1 -0.4 0.3 -0.6 0.4 l -0.1 -0.2 l -0.4 0 c -0.1 -0.1 -0.1 -0.3 -0.2 -0.4 h -6.4 c 0 0.3 0 0.6 0 0.9 c -0.5 0.2 -1.1 0.2 -1.5 0.8 c -0.2 -0.2 -0.4 -0.3 -0.6 -0.7 c -0.4 -0.4 -0.9 -0.3 -1.4 -0.4 c 0.1 0.1 0.1 0.2 0.1 0.3 c 0.2 0.4 0.2 1.1 0.1 1.5 c 0 0 0 0.1 0 0.1 c -0.1 0.4 -0.3 0.6 -0.6 0.8 c -0.4 0.2 -0.9 0 -1.2 -0.6 c -0.1 -0.2 -0.2 -0.5 -0.4 -0.7 h -5 c 0 -0.2 -0.1 -0.3 -0.1 -0.4 h 4.1 c 0.1 -0.2 0.1 -0.3 0.2 -0.4 c -0.2 -0.1 -0.4 -0.1 -0.6 -0.1 c -0.2 0 -0.4 -0.1 -0.6 -0.1 l -0.2 -0.2 h -14.5 c -0.3 0.2 -0.5 0.3 -0.7 0.4 c -0.2 0.1 -0.4 0 -0.6 0 c -0.2 0.1 -0.4 0.2 -0.6 0 l -0.5 0.1 l -0.1 0.2 c -0.2 -0.1 -0.4 0 -0.7 0 c -0.1 0 -0.2 0.1 -0.3 0.2 s -0.2 0.1 -0.2 0.4 c 0 0.1 0 0.2 0 0.4 l 0.2 0 c 0 0.2 0 0.5 0 0.7 c 0 0 -0.1 0 -0.2 0 v 1 h -1.5 c 0 -0.1 0 -0.2 0 -0.3 c 0 -0.3 -0.1 -0.3 -0.2 -0.5 c -0.4 -1 -0.8 -1.7 -0.9 -2.9 c -0.1 -0.9 -0.1 -1.2 0 -2 c 0.1 -1 0.3 -1.7 0.6 -2.7 c 0 -0.1 0.5 -1 0.5 -1.6 c 0.5 -0.1 1 0 1.5 0 c 0 0.4 0 0.7 0 0.9 l 0.3 0.1 l 0 0.5 l -0.2 0 c 0 0.5 0.1 0.9 0.6 1 l 0.2 -0.1 l 0.1 0.2 l 0.4 -0.1 l 0.2 0.2 l 0.2 -0.1 l 0.3 0.2 l 0.4 -0.2 l 0.5 0.2 c 0.4 -0.2 0.7 0 1 0.3 h 18.4 c 0.6 0 1.2 0.1 1.8 -0.4 l 0.1 -0.3 c 0.2 -0.1 0.3 -0.3 0.5 -0.4 c 0.4 0.5 1 0.7 1.5 0.7 v 1.1 h 0.3 c 1.9 0 3.7 0 5.6 0 c 0.2 0 0.3 0 0.5 -0.1 c 0 -0.2 0.1 -0.3 0.1 -0.4 h 0.4 l 0.1 -0.2 c 0.2 -0.2 0.3 0.1 0.4 0.2 c 0.3 0 0.6 0 1 0 c 0.3 0 0.6 0 0.9 0 h 0.8 c 0.4 0 0.7 0 1.1 0 c 0.3 0 0.6 0 0.9 0 c 0.4 0 0.7 0 1.1 0 h 0.7 c 0.4 0 0.7 0 1 0 s 0.6 0 0.9 0 s 0.6 0 1 0 c 0.3 0 0.5 0 0.8 0 h 1 c 0.3 0 0.6 0 1 0 c 0.3 0 0.6 0 1 0 c 0.3 0 0.6 0 0.9 0 h 3.8 c 0.1 -0.2 0.2 -1 0.3 -1.2 c 0 0 0.1 0 0.2 0 c 0.1 -0.1 0.1 -0.1 0.1 -0.2 h 5.3 c 2.2 0 4.4 0 6.5 0 c 0.4 0 0.9 -0.1 1.1 -0.2 c 0.3 -0.3 0.4 -0.4 0.7 -0.6 h 0.8 c 0 0.4 0.1 0.4 -0.1 0.8 c 0.4 0.3 1.1 0.1 1.6 0.3 c 0 0.1 0.1 0.2 0.1 0.3 h 1.5 c 0.2 0 0.9 -0.7 1 -1 c 0.1 -0.2 0.2 -0.3 0.2 -0.5 h 0.9 c 0.1 0.6 -0.1 0.9 0 1.6 z M 26.5 19.1 c 0.1 0 0.1 0 0.2 0 v -0.1 h -0.2 v 0.1 z M 28.4 20.8 c 0.4 0 0.7 -0.4 0.7 -1 c 0 -0.6 -0.3 -1 -0.7 -1 c -0.4 0 -0.7 0.4 -0.7 1 c 0 0.5 0.3 1 0.7 1 z M 31.9 18.7 h 0.1 c 0 0 0 0 0 0 h -0.1 v 0 z M 64.8 23.1 c 0.4 -0.3 0.6 -0.8 0.6 -1.5 h -3.2 c 0.1 0.6 0.2 1 0.3 1.3 c 0.3 0.5 1.5 0.8 2.3 0.2 z"></path>
</svg>
